<?xml version="1.0" encoding="utf-8"?>
<!-- Generator: Adobe Illustrator 16.0.0, SVG Export Plug-In . SVG Version: 6.00 Build 0)  -->
<!DOCTYPE svg PUBLIC "-//W3C//DTD SVG 1.1//EN" "http://www.w3.org/Graphics/SVG/1.1/DTD/svg11.dtd">
<svg version="1.1" id="Layer_1" xmlns="http://www.w3.org/2000/svg" xmlns:xlink="http://www.w3.org/1999/xlink" x="0px" y="0px"
	 width="1440px" height="900px" viewBox="0 0 1440 900" enable-background="new 0 0 1440 900" xml:space="preserve">
<title>Instagram icon</title>
<path fill="#2D2D2D" d="M720,0C597.75,0,582.487,0.562,534.487,2.7c-47.925,2.25-80.55,9.787-109.237,20.925
	c-29.587,11.475-54.712,26.888-79.725,51.9c-25.012,25.013-40.462,50.1-51.9,79.725c-11.138,28.688-18.712,61.312-20.925,109.237
	c-2.25,48-2.7,63.263-2.7,185.513s0.562,137.513,2.7,185.513c2.25,47.888,9.787,80.55,20.925,109.237
	c11.475,29.55,26.888,54.713,51.9,79.725c25.013,24.976,50.1,40.463,79.725,51.9c28.725,11.1,61.35,18.713,109.237,20.925
	c48,2.25,63.263,2.7,185.513,2.7s137.513-0.562,185.513-2.7c47.888-2.25,80.55-9.825,109.237-20.925
	c29.55-11.475,54.713-26.925,79.725-51.9c24.976-25.012,40.463-50.062,51.9-79.725c11.1-28.688,18.713-61.35,20.925-109.237
	c2.25-48,2.7-63.263,2.7-185.513s-0.562-137.513-2.7-185.513c-2.25-47.887-9.825-80.587-20.925-109.237
	c-11.475-29.587-26.925-54.712-51.9-79.725c-25.012-25.012-50.062-40.462-79.725-51.9C986.062,12.487,953.4,4.913,905.513,2.7
	C857.513,0.45,842.25,0,720,0z M720,81c120.112,0,134.438,0.6,181.875,2.663c43.875,2.062,67.688,9.337,83.513,15.562
	c21.075,8.137,36,17.887,51.825,33.6c15.712,15.75,25.462,30.712,33.6,51.787c6.15,15.825,13.5,39.638,15.487,83.513
	c2.138,47.475,2.625,61.725,2.625,181.875s-0.562,134.438-2.774,181.875c-2.288,43.875-9.601,67.688-15.788,83.513
	c-8.399,21.075-17.962,36-33.712,51.825c-15.713,15.712-30.9,25.462-51.75,33.6c-15.75,6.15-39.938,13.5-83.812,15.487
	c-47.775,2.138-61.838,2.625-182.213,2.625c-120.412,0-134.475-0.562-182.213-2.774c-43.912-2.288-68.1-9.601-83.85-15.788
	c-21.338-8.399-36-17.962-51.713-33.712c-15.787-15.713-25.875-30.9-33.75-51.75c-6.188-15.75-13.462-39.938-15.75-83.812
	c-1.688-47.25-2.288-61.838-2.288-181.65c0-119.85,0.6-134.475,2.288-182.288c2.288-43.875,9.562-68.025,15.75-83.775
	c7.875-21.375,17.962-36,33.75-51.788c15.713-15.712,30.375-25.837,51.713-33.675c15.75-6.225,39.412-13.538,83.287-15.788
	c47.812-1.688,61.875-2.25,182.213-2.25L720,81z M720,218.925c-127.688,0-231.075,103.5-231.075,231.075
	c0,127.688,103.5,231.075,231.075,231.075c127.688,0,231.075-103.5,231.075-231.075C951.075,322.312,847.575,218.925,720,218.925
	L720,218.925z M720,600c-82.875,0-150-67.125-150-150s67.125-150,150-150s150,67.125,150,150S802.875,600,720,600z
	 M1014.225,209.812c0,29.812-24.225,54-54,54c-29.812,0-54-24.225-54-54s24.226-53.962,54-53.962
	C989.963,155.812,1014.225,180.038,1014.225,209.812z"/>
</svg>
