<?xml version="1.0" standalone="no"?>
<!DOCTYPE svg PUBLIC "-//W3C//DTD SVG 20010904//EN"
 "http://www.w3.org/TR/2001/REC-SVG-20010904/DTD/svg10.dtd">
<svg version="1.0" xmlns="http://www.w3.org/2000/svg"
 width="1083.000000pt" height="1083.000000pt" viewBox="0 0 1083.000000 1083.000000"
 preserveAspectRatio="xMidYMid meet">
<metadata>
Created by potrace 1.11, written by Peter Selinger 2001-2013
</metadata>
<g transform="translate(0.000000,1083.000000) scale(0.100000,-0.100000)"
fill="#000000" stroke="none">
<path d="M5119 10826 c-2 -2 -49 -7 -104 -10 -55 -4 -118 -9 -140 -11 -99 -10
-154 -17 -210 -25 -33 -5 -78 -12 -100 -15 -22 -4 -51 -8 -65 -11 -14 -2 -41
-7 -60 -10 -19 -3 -63 -12 -98 -20 -34 -7 -77 -16 -95 -19 -17 -4 -93 -21
-167 -40 -585 -148 -1151 -399 -1660 -738 -423 -281 -783 -601 -1130 -1003
-19 -22 -51 -60 -70 -83 -19 -24 -42 -51 -51 -61 -8 -11 -24 -31 -35 -45 -10
-15 -24 -32 -29 -39 -20 -21 -181 -251 -236 -336 -146 -224 -292 -494 -419
-775 -62 -136 -172 -441 -229 -630 -44 -148 -114 -443 -136 -570 -2 -16 -7
-41 -9 -55 -9 -47 -33 -216 -41 -295 -4 -33 -8 -71 -10 -84 -27 -167 -27 -906
0 -1071 2 -14 7 -59 11 -100 3 -41 7 -77 9 -80 2 -3 6 -32 9 -65 4 -33 9 -67
11 -75 2 -8 6 -33 10 -55 3 -22 7 -47 10 -55 2 -8 6 -33 10 -55 3 -22 7 -47
10 -55 2 -8 6 -26 9 -40 3 -20 25 -114 51 -222 50 -210 159 -538 254 -761 94
-220 236 -506 301 -607 5 -8 21 -35 34 -60 28 -51 144 -229 225 -347 98 -142
309 -405 426 -533 78 -85 303 -309 370 -368 33 -30 74 -66 90 -81 67 -62 298
-243 425 -332 312 -221 618 -393 965 -544 61 -26 124 -53 140 -61 68 -31 312
-116 445 -156 177 -53 416 -112 535 -133 222 -39 301 -51 388 -60 32 -4 66 -8
76 -10 107 -20 858 -29 1036 -11 50 5 104 10 120 11 60 6 140 16 155 20 8 2
40 7 70 10 30 4 89 13 130 21 41 7 89 16 105 19 17 3 41 8 55 11 14 3 39 8 55
11 74 10 455 117 602 168 298 102 670 269 908 406 50 29 99 57 110 64 103 59
339 216 465 310 88 66 252 196 270 215 3 3 37 32 75 64 115 97 452 442 564
576 172 205 364 471 480 665 24 39 47 77 52 85 125 201 320 617 426 910 39
109 140 437 148 483 3 17 8 33 10 37 2 3 6 17 9 31 2 13 12 58 21 99 42 192
74 379 90 525 3 28 8 66 10 85 16 132 20 239 20 575 0 333 -4 448 -20 570 -2
17 -7 57 -10 90 -3 33 -10 85 -15 115 -5 30 -12 73 -15 95 -9 62 -74 385 -87
430 -6 22 -12 45 -13 50 -27 127 -198 644 -225 680 -4 6 -11 21 -15 35 -23 80
-199 440 -306 627 -55 95 -226 368 -248 395 -6 7 -52 69 -102 138 -51 69 -95
127 -98 130 -3 3 -24 28 -46 55 -142 180 -430 482 -600 630 -44 39 -82 72 -85
75 -3 3 -41 35 -85 70 -44 36 -82 67 -85 70 -35 39 -402 293 -560 387 -191
115 -494 270 -670 342 -58 24 -118 49 -135 56 -256 109 -755 248 -1080 300
-55 9 -110 18 -121 20 -12 2 -48 7 -80 10 -33 4 -66 9 -75 10 -8 2 -55 6 -105
10 -49 4 -98 10 -109 12 -23 6 -710 14 -716 9z m552 -1130 c73 -4 135 -9 138
-10 3 -2 43 -7 87 -10 45 -4 93 -9 105 -11 13 -2 53 -9 89 -15 93 -15 190 -34
330 -65 47 -10 100 -26 100 -31 0 -2 -33 -84 -74 -182 -40 -97 -133 -321 -205
-497 -73 -176 -139 -333 -146 -350 -7 -16 -23 -55 -35 -85 -12 -30 -28 -68
-35 -85 -8 -16 -30 -70 -50 -120 -20 -49 -42 -103 -50 -120 -7 -16 -50 -120
-95 -230 -45 -110 -99 -240 -120 -290 -21 -49 -75 -180 -120 -290 -45 -110
-88 -213 -95 -230 -8 -16 -68 -163 -135 -325 -67 -162 -127 -308 -135 -325 -7
-16 -34 -82 -60 -145 -25 -63 -52 -128 -60 -145 -7 -16 -99 -239 -205 -495
-106 -256 -198 -478 -206 -495 -7 -16 -23 -55 -34 -85 -12 -30 -28 -68 -35
-85 -8 -16 -79 -187 -158 -380 -291 -705 -318 -770 -327 -790 -5 -11 -55 -130
-110 -265 -55 -135 -109 -265 -120 -290 -22 -50 -139 -333 -391 -945 -93 -225
-180 -435 -193 -465 -13 -30 -31 -73 -41 -96 l-18 -41 -41 24 c-22 13 -61 37
-86 53 -25 17 -52 33 -60 37 -43 21 -346 247 -440 328 -228 199 -420 399 -591
615 -97 123 -115 148 -182 250 -32 47 -61 90 -65 95 -25 31 -154 258 -213 375
-109 218 -175 376 -246 590 -42 128 -116 399 -128 472 -3 18 -12 67 -20 108
-14 74 -17 96 -31 195 -3 28 -8 57 -9 66 -2 8 -6 53 -10 100 -3 46 -8 104 -11
129 -5 54 -5 446 0 545 7 112 27 292 46 405 5 30 12 73 15 95 4 22 9 49 12 60
3 11 7 29 8 40 12 97 136 521 190 650 16 38 28 69 29 75 3 18 82 189 147 320
564 1132 1618 1967 2852 2260 70 16 142 32 160 34 18 2 43 7 57 10 37 9 79 15
135 22 28 3 56 7 63 10 8 2 44 6 80 10 37 3 76 7 87 9 11 2 81 7 155 11 74 3
136 7 137 8 4 3 247 -2 364 -8z"/>
</g>
</svg>
